{"asset": {"version": "2.0", "generator": "VECTARY"}, "nodes": [{"translation": [0, 0, 0], "scale": [0.031219476176796462, 0.031219476176796462, 0.031219476176796462], "rotation": [-0.7071067811865475, 0, 0, 0.7071067811865476], "name": "Piggy Bank", "children": [1]}, {"translation": [4.551919652567415e-16, 0.1558371949940918, -0.0017779839690773064], "scale": [1, 1, 1], "rotation": [0, 0, 0, 1], "name": "RootNode (model correction matrix)", "children": [2]}, {"translation": [0, 0, 0], "scale": [1, 1, 1], "rotation": [0, 0, 0, 1], "name": "root", "children": [3]}, {"translation": [0, 0, 0], "scale": [1, 1, 1], "rotation": [0.7071067811865475, 0, 0, 0.7071067811865476], "name": "GLTF_SceneRootNode", "children": [4]}, {"translation": [0, 0, 0.0005963612347841263], "scale": [1, 1, 1], "rotation": [0, 0, 0, 1], "name": "Cube_0", "children": [5, 6]}, {"translation": [0, 0, 0], "scale": [1, 1, 1], "rotation": [0, 0, 0, 1], "name": "Buffer Layer", "mesh": 0}, {"translation": [0, 0, 0], "scale": [1, 1, 1], "rotation": [0, 0, 0, 1], "name": "Buffer Layer", "mesh": 1}, {"translation": [0.13620502717433033, 0.29976634393604945, 0.30049063443358004], "scale": [1, 1, 1], "rotation": [-0.34853771547865686, 0.1536779261343993, 0.0580443450683687, 0.922786762970478], "name": "Camera", "camera": 0}], "materials": [{"pbrMetallicRoughness": {"baseColorFactor": [1, 0.6320426176206414, 0.6320426176206414, 0.4616996951], "metallicFactor": 1, "roughnessFactor": 0.1236661585}, "name": "Material 2", "emissiveFactor": [0, 0, 0], "alphaMode": "BLEND", "doubleSided": true}, {"pbrMetallicRoughness": {"baseColorFactor": [0.04632429922838639, 0.04632429922838639, 0.04632429922838639, 1], "metallicFactor": 1, "roughnessFactor": 0.2705625057220459}, "name": "Material 1", "emissiveFactor": [0, 0, 0], "alphaMode": "OPAQUE", "doubleSided": true}], "meshes": [{"primitives": [{"mode": 4, "attributes": {"POSITION": 1, "NORMAL": 2, "TEXCOORD_0": 3}, "material": 0, "indices": 0}]}, {"primitives": [{"mode": 4, "attributes": {"POSITION": 5, "NORMAL": 6, "TEXCOORD_0": 7}, "material": 1, "indices": 4}]}], "accessors": [{"bufferView": 0, "byteOffset": 0, "componentType": 5125, "count": 90624, "type": "SCALAR"}, {"bufferView": 1, "byteOffset": 0, "componentType": 5126, "count": 17588, "max": [1.3664692640304565, 2.8426129817962646, 1.756805181503296], "min": [-1.3664692640304565, 0.001777983969077468, -1.4463235139846802], "type": "VEC3"}, {"bufferView": 2, "byteOffset": 0, "componentType": 5126, "count": 17588, "type": "VEC3"}, {"bufferView": 3, "byteOffset": 0, "componentType": 5126, "count": 17588, "type": "VEC2"}, {"bufferView": 4, "byteOffset": 0, "componentType": 5125, "count": 10752, "type": "SCALAR"}, {"bufferView": 5, "byteOffset": 0, "componentType": 5126, "count": 2375, "max": [0.4752610921859741, 1.9738754034042358, 1.731637954711914], "min": [-0.47526100277900696, 1.4326072931289673, 1.3426762819290161], "type": "VEC3"}, {"bufferView": 6, "byteOffset": 0, "componentType": 5126, "count": 2375, "type": "VEC3"}, {"bufferView": 7, "byteOffset": 0, "componentType": 5126, "count": 2375, "type": "VEC2"}], "bufferViews": [{"buffer": 0, "byteOffset": 0, "byteLength": 362496, "target": 34963}, {"buffer": 0, "byteOffset": 362496, "byteLength": 211056, "target": 34962}, {"buffer": 0, "byteOffset": 573552, "byteLength": 211056, "target": 34962}, {"buffer": 0, "byteOffset": 784608, "byteLength": 140704, "target": 34962}, {"buffer": 0, "byteOffset": 925312, "byteLength": 43008, "target": 34963}, {"buffer": 0, "byteOffset": 968320, "byteLength": 28500, "target": 34962}, {"buffer": 0, "byteOffset": 996820, "byteLength": 28500, "target": 34962}, {"buffer": 0, "byteOffset": 1025320, "byteLength": 19000, "target": 34962}], "cameras": [{"name": "Camera", "type": "perspective", "extras": {"targetDistance": 0.348512302056775}, "perspective": {"aspectRatio": 1.839378238341969, "yfov": 0.6108652381980153, "zfar": 33.20678815697315, "znear": 0.00235543352137356}}], "scene": 0, "scenes": [{"nodes": [0, 7], "name": "Coins"}], "extensionsUsed": ["KHR_texture_transform"], "buffers": [{"byteLength": 1044320, "uri": "piggy.bin"}]}